<?xml version="1.0" encoding="UTF-8" standalone="no"?>
<svg
   width="11"
   height="9"
   viewBox="0 0 11 9"
   fill="none"
   version="1.1"
   id="svg4"
   sodipodi:docname="check-w.svg"
   inkscape:version="1.2.2 (732a01da63, 2022-12-09)"
   xmlns:inkscape="http://www.inkscape.org/namespaces/inkscape"
   xmlns:sodipodi="http://sodipodi.sourceforge.net/DTD/sodipodi-0.dtd"
   xmlns="http://www.w3.org/2000/svg"
   xmlns:svg="http://www.w3.org/2000/svg">
  <defs
     id="defs8" />
  <sodipodi:namedview
     id="namedview6"
     pagecolor="#505050"
     bordercolor="#eeeeee"
     borderopacity="1"
     inkscape:showpageshadow="0"
     inkscape:pageopacity="0"
     inkscape:pagecheckerboard="0"
     inkscape:deskcolor="#505050"
     showgrid="false"
     inkscape:zoom="91.222222"
     inkscape:cx="5.5030451"
     inkscape:cy="4.4671133"
     inkscape:window-width="1920"
     inkscape:window-height="986"
     inkscape:window-x="-11"
     inkscape:window-y="1609"
     inkscape:window-maximized="1"
     inkscape:current-layer="svg4" />
  <path
     d="M1 4.5L4.5 7L9.5 1"
     stroke="white"
     stroke-width="2"
     stroke-linecap="round"
     id="path2" />
  <path
     style="fill:#000000;stroke-width:0.0109622"
     d="M 2.5267966,6.8120495 C 1.3510962,5.971519 0.36130844,5.2593059 0.32726817,5.2293535 0.12993912,5.0557219 0.01038172,4.7818378 0.01015949,4.5029155 0.00991026,4.1901063 0.14005992,3.9171037 0.38054035,3.7260027 0.57509674,3.5713959 0.80137192,3.4985392 1.0498665,3.5104912 c 0.1437196,0.00691 0.2671447,0.038697 0.3892315,0.1002358 0.057111,0.028787 0.5901802,0.4025646 1.4549337,1.0201703 0.7506394,0.5361055 1.380028,0.9861586 1.3986411,1.0001178 l 0.033842,0.02538 L 6.561837,2.9740638 C 8.9999791,0.04835306 8.8578488,0.21119824 9.0611943,0.11043654 9.3230986,-0.01934214 9.6449037,-0.02476139 9.9114959,0.09611731 c 0.2246201,0.10184774 0.4195021,0.3072293 0.5121031,0.53969268 0.05311,0.13333765 0.07093,0.24535919 0.06436,0.40479821 -0.0087,0.2105384 -0.06831,0.3847857 -0.186022,0.5434356 C 10.23627,1.6725528 4.6822223,8.33631 4.6722668,8.3385355 4.6679585,8.3394987 3.702497,7.6525799 2.5267966,6.8120495 Z"
     id="path929" />
</svg>
