<?xml version="1.0" encoding="UTF-8" standalone="no"?>
<svg
   width="14"
   height="14"
   viewBox="0 0 14 14"
   fill="none"
   version="1.1"
   id="svg4"
   sodipodi:docname="exit.svg"
   inkscape:version="1.2.2 (732a01da63, 2022-12-09)"
   xmlns:inkscape="http://www.inkscape.org/namespaces/inkscape"
   xmlns:sodipodi="http://sodipodi.sourceforge.net/DTD/sodipodi-0.dtd"
   xmlns="http://www.w3.org/2000/svg"
   xmlns:svg="http://www.w3.org/2000/svg">
  <defs
     id="defs8" />
  <sodipodi:namedview
     id="namedview6"
     pagecolor="#505050"
     bordercolor="#eeeeee"
     borderopacity="1"
     inkscape:showpageshadow="0"
     inkscape:pageopacity="0"
     inkscape:pagecheckerboard="0"
     inkscape:deskcolor="#505050"
     showgrid="false"
     inkscape:zoom="41.466762"
     inkscape:cx="9.1157347"
     inkscape:cy="5.8359994"
     inkscape:window-width="1920"
     inkscape:window-height="986"
     inkscape:window-x="-11"
     inkscape:window-y="1609"
     inkscape:window-maximized="1"
     inkscape:current-layer="svg4" />
  <path
     style="color:#000000;fill:#161616;stroke-linecap:round;stroke-linejoin:round;-inkscape-stroke:none"
     d="m 1,0 a 1,1 0 0 0 -0.70703125,0.29296875 1,1 0 0 0 0,1.41406245 L 5.5859375,7 0.29296875,12.292969 a 1,1 0 0 0 0,1.414062 1,1 0 0 0 1.41406245,0 L 7,8.4140625 12.292969,13.707031 a 1,1 0 0 0 1.414062,0 1,1 0 0 0 0,-1.414062 L 8.4140625,7 13.707031,1.7070312 a 1,1 0 0 0 0,-1.41406245 1,1 0 0 0 -1.414062,0 L 7,5.5859375 1.7070312,0.29296875 A 1,1 0 0 0 1,0 Z"
     id="path2" />
</svg>
