<?xml version="1.0" encoding="UTF-8" standalone="no"?>
<svg
   width="10"
   height="10"
   viewBox="0 0 10 10"
   fill="none"
   version="1.1"
   id="svg1164"
   sodipodi:docname="link.svg"
   inkscape:version="1.2.2 (732a01da63, 2022-12-09)"
   xmlns:inkscape="http://www.inkscape.org/namespaces/inkscape"
   xmlns:sodipodi="http://sodipodi.sourceforge.net/DTD/sodipodi-0.dtd"
   xmlns="http://www.w3.org/2000/svg"
   xmlns:svg="http://www.w3.org/2000/svg">
  <defs
     id="defs1168" />
  <sodipodi:namedview
     id="namedview1166"
     pagecolor="#505050"
     bordercolor="#eeeeee"
     borderopacity="1"
     inkscape:showpageshadow="0"
     inkscape:pageopacity="0"
     inkscape:pagecheckerboard="0"
     inkscape:deskcolor="#505050"
     showgrid="false"
     inkscape:zoom="41.05"
     inkscape:cx="5.6029233"
     inkscape:cy="6.455542"
     inkscape:window-width="1920"
     inkscape:window-height="986"
     inkscape:window-x="-11"
     inkscape:window-y="1609"
     inkscape:window-maximized="1"
     inkscape:current-layer="svg1164" />
  <path
     style="color:#000000;fill:#161616;stroke-linecap:round;stroke-linejoin:round;-inkscape-stroke:none"
     d="M 6.5,0.5 A 0.5,0.5 0 0 0 6,1 0.5,0.5 0 0 0 6.5,1.5 H 7.7929687 L 3.6464844,5.6464844 a 0.5,0.5 0 0 0 0,0.7070312 0.5,0.5 0 0 0 0.7070312,0 L 8.5,2.2070313 V 3.5 A 0.5,0.5 0 0 0 9,4 0.5,0.5 0 0 0 9.5,3.5 V 1 A 0.5,0.5 0 0 0 9.4628906,0.80859375 0.5,0.5 0 0 0 9.3535156,0.64648437 0.5,0.5 0 0 0 9.1914063,0.53710937 0.5,0.5 0 0 0 9,0.5 Z M 2,2 C 1.602362,2 1.2206179,2.1583033 0.93945313,2.4394531 0.65830333,2.7206179 0.5,3.102362 0.5,3.5 V 8 C 0.5,8.397638 0.65830333,8.7793821 0.93945313,9.0605469 1.2206179,9.3416967 1.602362,9.5 2,9.5 H 6.5 C 6.897638,9.5 7.2793821,9.3416967 7.5605469,9.0605469 7.8416967,8.7793821 8,8.397638 8,8 V 5.5 A 0.5,0.5 0 0 0 7.5,5 0.5,0.5 0 0 0 7,5.5 V 8 C 7,8.1328015 6.9474255,8.2596008 6.8535156,8.3535156 6.7596008,8.4474255 6.6328015,8.5 6.5,8.5 H 2 C 1.8671985,8.5 1.7403992,8.4474255 1.6464844,8.3535156 1.5525745,8.2596008 1.5,8.1328015 1.5,8 V 3.5 C 1.5,3.3671985 1.5525745,3.2403992 1.6464844,3.1464844 1.7403992,3.0525745 1.8671985,3 2,3 H 4.5 A 0.5,0.5 0 0 0 5,2.5 0.5,0.5 0 0 0 4.5,2 Z"
     id="path1162" />
</svg>
