<svg width="35" height="35" viewBox="0 0 35 35" fill="none" xmlns="http://www.w3.org/2000/svg">
<path d="M14.8562 20.1437C15.625 20.875 15.625 22.075 14.8562 22.8062C14.125 23.5375 12.925 23.5375 12.1937 22.8062C10.4376 21.0474 9.45117 18.6635 9.45117 16.1781C9.45117 13.6926 10.4376 11.3088 12.1937 9.54997L18.8312 2.91247C20.59 1.1563 22.9739 0.169922 25.4593 0.169922C27.9448 0.169922 30.3287 1.1563 32.0875 2.91247C33.8436 4.67127 34.83 7.05514 34.83 9.54059C34.83 12.0261 33.8436 14.4099 32.0875 16.1687L29.2937 18.9625C29.3125 17.425 29.0687 15.8875 28.5437 14.425L29.425 13.525C29.9506 13.005 30.3679 12.386 30.6527 11.7037C30.9375 11.0213 31.0841 10.2893 31.0841 9.54997C31.0841 8.81061 30.9375 8.07859 30.6527 7.39629C30.3679 6.71398 29.9506 6.09493 29.425 5.57497C28.905 5.04934 28.286 4.63205 27.6036 4.34725C26.9213 4.06246 26.1893 3.91582 25.45 3.91582C24.7106 3.91582 23.9786 4.06246 23.2963 4.34725C22.614 4.63205 21.9949 5.04934 21.475 5.57497L14.8562 12.1937C14.3306 12.7137 13.9133 13.3327 13.6285 14.015C13.3437 14.6973 13.1971 15.4294 13.1971 16.1687C13.1971 16.9081 13.3437 17.6401 13.6285 18.3224C13.9133 19.0047 14.3306 19.6238 14.8562 20.1437ZM20.1437 12.1937C20.875 11.4625 22.075 11.4625 22.8062 12.1937C24.5624 13.9525 25.5488 16.3364 25.5488 18.8218C25.5488 21.3073 24.5624 23.6912 22.8062 25.45L16.1687 32.0875C14.4099 33.8436 12.0261 34.83 9.54059 34.83C7.05514 34.83 4.67127 33.8436 2.91247 32.0875C1.1563 30.3287 0.169922 27.9448 0.169922 25.4593C0.169922 22.9739 1.1563 20.59 2.91247 18.8312L5.70622 16.0375C5.68747 17.575 5.93122 19.1125 6.45622 20.5937L5.57497 21.475C5.04934 21.9949 4.63205 22.614 4.34725 23.2963C4.06246 23.9786 3.91582 24.7106 3.91582 25.45C3.91582 26.1893 4.06246 26.9213 4.34725 27.6036C4.63205 28.286 5.04934 28.905 5.57497 29.425C6.09493 29.9506 6.71398 30.3679 7.39629 30.6527C8.07859 30.9375 8.81061 31.0841 9.54997 31.0841C10.2893 31.0841 11.0213 30.9375 11.7037 30.6527C12.386 30.3679 13.005 29.9506 13.525 29.425L20.1437 22.8062C20.6694 22.2863 21.0866 21.6672 21.3714 20.9849C21.6562 20.3026 21.8029 19.5706 21.8029 18.8312C21.8029 18.0919 21.6562 17.3598 21.3714 16.6775C21.0866 15.9952 20.6694 15.3762 20.1437 14.8562C19.9616 14.6856 19.8165 14.4794 19.7172 14.2504C19.618 14.0214 19.5668 13.7745 19.5668 13.525C19.5668 13.2754 19.618 13.0285 19.7172 12.7995C19.8165 12.5705 19.9616 12.3644 20.1437 12.1937Z" fill="#B8B8B8"/>
</svg>
