<svg width="39" height="39" viewBox="0 0 39 39" fill="none" xmlns="http://www.w3.org/2000/svg">
<path d="M19.5 0.75C9.15 0.75 0.75 9.15 0.75 19.5C0.75 29.85 9.15 38.25 19.5 38.25C29.85 38.25 38.25 29.85 38.25 19.5C38.25 9.15 29.85 0.75 19.5 0.75ZM28.2 13.5C27.9187 16.4625 26.7 23.6625 26.0813 26.9812C25.8188 28.3875 25.2938 28.8563 24.8062 28.9125C23.7188 29.0063 22.8937 28.2 21.8438 27.5063C20.1938 26.4188 19.2563 25.7438 17.6625 24.6938C15.8063 23.475 17.0063 22.8 18.075 21.7125C18.3562 21.4312 23.1562 17.0625 23.25 16.6687C23.263 16.6091 23.2613 16.5472 23.245 16.4884C23.2286 16.4296 23.1982 16.3756 23.1562 16.3313C23.0437 16.2375 22.8937 16.275 22.7625 16.2937C22.5938 16.3313 19.9688 18.075 14.85 21.525C14.1 22.0312 13.425 22.2937 12.825 22.275C12.15 22.2562 10.875 21.9 9.91875 21.5812C8.7375 21.2062 7.81875 21 7.89375 20.3438C7.93125 20.0063 8.4 19.6687 9.28125 19.3125C14.7563 16.9312 18.3937 15.3563 20.2125 14.6063C25.425 12.4313 26.4938 12.0562 27.2063 12.0562C27.3563 12.0562 27.7125 12.0937 27.9375 12.2812C28.125 12.4312 28.1812 12.6375 28.2 12.7875C28.1812 12.9 28.2187 13.2375 28.2 13.5Z" fill="#B8B8B8"/>
</svg>
