<svg width="146" height="102" viewBox="0 0 146 102" fill="none" xmlns="http://www.w3.org/2000/svg">
<path d="M58.5 72.75L96.1275 51L58.5 29.25V72.75ZM142.31 15.9825C143.253 19.39 143.905 23.9575 144.34 29.7575C144.848 35.5575 145.065 40.56 145.065 44.91L145.5 51C145.5 66.8775 144.34 78.55 142.31 86.0175C140.497 92.5425 136.292 96.7475 129.768 98.56C126.36 99.5025 120.125 100.155 110.555 100.59C101.13 101.098 92.5025 101.315 84.5275 101.315L73 101.75C42.6225 101.75 23.7 100.59 16.2325 98.56C9.7075 96.7475 5.5025 92.5425 3.69 86.0175C2.7475 82.61 2.095 78.0425 1.66 72.2425C1.1525 66.4425 0.935 61.44 0.935 57.09L0.5 51C0.5 35.1225 1.66 23.45 3.69 15.9825C5.5025 9.4575 9.7075 5.2525 16.2325 3.44C19.64 2.4975 25.875 1.845 35.445 1.41C44.87 0.902499 53.4975 0.685 61.4725 0.685L73 0.25C103.378 0.25 122.3 1.41 129.768 3.44C136.292 5.2525 140.497 9.4575 142.31 15.9825Z" fill="#ED2929"/>
</svg>
