<svg width="18" height="19" viewBox="0 0 18 19" fill="none" xmlns="http://www.w3.org/2000/svg">
<path d="M4.4165 15.8333C4.12484 15.8333 3.87845 15.7325 3.67734 15.5308C3.47567 15.3297 3.37484 15.0833 3.37484 14.7916C3.37484 14.5 3.47567 14.2536 3.67734 14.0525C3.87845 13.8508 4.12484 13.75 4.4165 13.75C4.70817 13.75 4.95484 13.8508 5.1565 14.0525C5.35761 14.2536 5.45817 14.5 5.45817 14.7916C5.45817 15.0833 5.35761 15.3297 5.1565 15.5308C4.95484 15.7325 4.70817 15.8333 4.4165 15.8333ZM6.9165 18.3333C6.62484 18.3333 6.37845 18.2325 6.17734 18.0308C5.97567 17.8297 5.87484 17.5833 5.87484 17.2916C5.87484 17 5.97567 16.7536 6.17734 16.5525C6.37845 16.3508 6.62484 16.25 6.9165 16.25C7.20817 16.25 7.45456 16.3508 7.65567 16.5525C7.85734 16.7536 7.95817 17 7.95817 17.2916C7.95817 17.5833 7.85734 17.8297 7.65567 18.0308C7.45456 18.2325 7.20817 18.3333 6.9165 18.3333ZM9.4165 15.8333C9.12484 15.8333 8.87845 15.7325 8.67734 15.5308C8.47567 15.3297 8.37484 15.0833 8.37484 14.7916C8.37484 14.5 8.47567 14.2536 8.67734 14.0525C8.87845 13.8508 9.12484 13.75 9.4165 13.75C9.70817 13.75 9.95456 13.8508 10.1557 14.0525C10.3573 14.2536 10.4582 14.5 10.4582 14.7916C10.4582 15.0833 10.3573 15.3297 10.1557 15.5308C9.95456 15.7325 9.70817 15.8333 9.4165 15.8333ZM14.4165 15.8333C14.1248 15.8333 13.8784 15.7325 13.6773 15.5308C13.4757 15.3297 13.3748 15.0833 13.3748 14.7916C13.3748 14.5 13.4757 14.2536 13.6773 14.0525C13.8784 13.8508 14.1248 13.75 14.4165 13.75C14.7082 13.75 14.9548 13.8508 15.1565 14.0525C15.3576 14.2536 15.4582 14.5 15.4582 14.7916C15.4582 15.0833 15.3576 15.3297 15.1565 15.5308C14.9548 15.7325 14.7082 15.8333 14.4165 15.8333ZM11.9165 18.3333C11.6248 18.3333 11.3784 18.2325 11.1773 18.0308C10.9757 17.8297 10.8748 17.5833 10.8748 17.2916C10.8748 17 10.9757 16.7536 11.1773 16.5525C11.3784 16.3508 11.6248 16.25 11.9165 16.25C12.2082 16.25 12.4548 16.3508 12.6565 16.5525C12.8576 16.7536 12.9582 17 12.9582 17.2916C12.9582 17.5833 12.8576 17.8297 12.6565 18.0308C12.4548 18.2325 12.2082 18.3333 11.9165 18.3333ZM5.24984 12.5C3.98595 12.5 2.90623 12.0519 2.01067 11.1558C1.11456 10.2603 0.666504 9.18053 0.666504 7.91665C0.666504 6.76387 1.04845 5.75692 1.81234 4.89581C2.57623 4.0347 3.52067 3.52776 4.64567 3.37498C5.09012 2.58331 5.69789 1.96165 6.469 1.50998C7.23956 1.05887 8.08317 0.833313 8.99984 0.833313C10.2498 0.833313 11.3365 1.23276 12.2598 2.03165C13.1837 2.82998 13.7429 3.82637 13.9373 5.02081C14.8957 5.10415 15.7012 5.49998 16.354 6.20831C17.0068 6.91665 17.3332 7.76387 17.3332 8.74998C17.3332 9.79165 16.9687 10.6772 16.2398 11.4066C15.5104 12.1355 14.6248 12.5 13.5832 12.5H5.24984Z" fill="white"/>
</svg>
